Coordinates
version=1
nRows=17
nColumns=40
inDegrees=yes

Units are S.I. units (second, meters, Newtons, ...)
Angles are in degrees.

endheader
time	pelvis_tilt	pelvis_list	pelvis_rotation	pelvis_tx	pelvis_ty	pelvis_tz	hip_flexion_r	hip_adduction_r	hip_rotation_r	knee_angle_r	knee_angle_r_beta	ankle_angle_r	subtalar_angle_r	mtp_angle_r	hip_flexion_l	hip_adduction_l	hip_rotation_l	knee_angle_l	knee_angle_l_beta	ankle_angle_l	subtalar_angle_l	mtp_angle_l	lumbar_extension	lumbar_bending	lumbar_rotation	arm_flex_r	arm_add_r	arm_rot_r	elbow_flex_r	pro_sup_r	wrist_flex_r	wrist_dev_r	arm_flex_l	arm_add_l	arm_rot_l	elbow_flex_l	pro_sup_l	wrist_flex_l	wrist_dev_l
     54.19692857	     -5.01302278	     -0.93155754	     -1.98505572	      1.05807830	      0.91348969	      0.43601846	     31.29315946	     -5.59639723	    -12.80292581	     15.32589409	     15.32589409	      1.70590705	      4.12424373	     11.54286439	     -3.78012553	     -1.65492716	    -14.06532294	      9.73373084	      9.73373084	     20.07295957	      7.43825059	     -7.50616573	    -11.97432575	      0.27216496	      0.06633591	    -20.66935893	    -16.88851528	     -5.92586180	     30.18553561	     47.00610942	      0.00000000	      0.00000000	     17.93749425	    -17.12324873	     -9.69697286	     91.40597178	     47.81109041	      0.00000000	      0.00000000
     54.20885714	     -4.99703370	     -0.94862887	     -1.79432584	      1.05985042	      0.91188378	      0.43841364	     30.93327877	     -5.33554384	    -12.68855097	     15.49370564	     15.49370564	      0.50035812	      3.58072114	      8.37551776	     -4.25505373	     -1.99060329	    -14.35875833	     10.31058385	     10.31058385	     21.08227804	      8.26078363	     -6.41663350	    -11.84415231	      0.28417353	     -0.33360476	    -21.65220285	    -16.57661444	     -6.70583996	     31.16971436	     46.94530881	      0.00000000	      0.00000000	     17.78946158	    -17.07545555	    -10.65964997	     93.68537280	     47.96568500	      0.00000000	      0.00000000
     54.22078571	     -5.02531708	     -1.01221605	     -1.58458727	      1.06156132	      0.91050485	      0.44084334	     30.83646865	     -5.14871682	    -12.58023339	     16.33725207	     16.33725207	      0.26259027	      3.11402367	      7.68442522	     -4.74052187	     -2.31322624	    -14.14777368	     10.66785807	     10.66785807	     21.42717667	      8.22676892	     -6.36621860	    -11.66912580	      0.34886526	     -0.15600110	    -22.36004966	    -16.19245674	     -6.65559141	     30.88293538	     46.93684676	      0.00000000	      0.00000000	     18.29626913	    -16.69007556	    -10.84710185	     94.65590125	     48.00689401	      0.00000000	      0.00000000
     54.23271429	     -5.08646824	     -1.09579492	     -1.32679638	      1.06338845	      0.90926176	      0.44340672	     30.55980990	     -4.86765610	    -12.16022830	     16.82076826	     16.82076826	     -1.40729613	      1.83032691	      2.95752568	     -5.01894933	     -2.77961863	    -14.29490858	     11.42771774	     11.42771774	     22.31208627	      8.78719286	     -5.29399124	    -11.46861689	      0.46411355	     -0.48290540	    -22.73247102	    -15.80689708	     -6.93420675	     31.07700604	     46.86991783	      0.00000000	      0.00000000	     18.03251564	    -16.43011293	    -11.70305764	     96.53857791	     48.15348993	      0.00000000	      0.00000000
     54.24464286	     -5.09211063	     -1.35037114	     -1.04176429	      1.06521107	      0.90867672	      0.44601728	     30.34226879	     -4.57684809	    -12.18747713	     17.80639503	     17.80639503	     -1.34489401	      1.40766643	      2.59973354	     -5.51263884	     -3.34204495	    -13.98484922	     11.76967484	     11.76967484	     22.42320626	      8.67160629	     -5.30414667	    -11.35376970	      0.80358461	     -0.45475830	    -22.92374595	    -15.39036200	     -6.84393000	     30.96595649	     46.86240354	      0.00000000	      0.00000000	     18.17474173	    -16.19090827	    -11.74208715	     96.91587278	     48.16677731	      0.00000000	      0.00000000
     54.25657143	     -5.20113484	     -1.42445880	     -0.85022822	      1.06675190	      0.90797964	      0.44879917	     30.52449534	     -4.42127128	    -11.65423571	     19.25434596	     19.25434596	     -1.24201406	      0.33975427	      1.73499745	     -5.56463170	     -3.79487936	    -13.67805796	     12.73133044	     12.73133044	     22.64621621	      8.33003806	     -5.34329920	    -11.22153757	      0.85160629	     -0.13397186	    -23.08478191	    -15.04749754	     -6.73354918	     30.80211625	     46.85066783	      0.00000000	      0.00000000	     18.31614601	    -15.55536805	    -11.90046556	     97.98197771	     48.20531900	      0.00000000	      0.00000000
     54.26850000	     -5.30012746	     -1.63659635	     -0.60953864	      1.06838996	      0.90783301	      0.45163856	     30.47215978	     -4.11040340	    -11.32235111	     20.35272175	     20.35272175	     -1.04824896	     -0.75513558	      0.87166961	     -5.57436428	     -4.42563939	    -13.41298906	     13.76164472	     13.76164472	     22.73290501	      8.01366806	     -5.33732868	    -11.05688881	      1.13861155	     -0.05690411	    -22.84931880	    -14.64812835	     -6.60185839	     30.76750538	     46.83389895	      0.00000000	      0.00000000	     18.07895794	    -15.10898257	    -12.11275920	     98.79392465	     48.24176902	      0.00000000	      0.00000000
     54.28042857	     -5.39638958	     -1.90978365	     -0.35729527	      1.06998051	      0.90811245	      0.45469174	     30.24914667	     -3.67489559	    -10.93222909	     21.10955271	     21.10955271	     -1.15533117	     -2.10220154	     -0.94044703	     -5.45103375	     -5.20874718	    -13.27329943	     15.04300357	     15.04300357	     22.81911969	      7.98122095	     -5.22710570	    -10.96182327	      1.43063348	     -0.54363292	    -21.84806402	    -14.50388831	     -5.97598576	     30.37321268	     46.76576011	      0.00000000	      0.00000000	     17.04508511	    -14.79981722	    -13.12324241	    100.18728969	     48.36874436	      0.00000000	      0.00000000
     54.29235714	     -5.30362527	     -2.12920947	     -0.15317354	      1.07159625	      0.90907347	      0.45772412	     29.83935122	     -3.38729083	    -10.92450215	     21.96386686	     21.96386686	     -0.49692307	     -2.51949611	     -1.29262781	     -5.53529586	     -5.86513115	    -12.90332806	     16.24620692	     16.24620692	     22.50593950	      7.43128279	     -5.37284638	    -11.11255165	      1.69149775	     -0.32456566	    -21.26018395	    -14.20304432	     -5.81993144	     30.49393580	     46.74964958	      0.00000000	      0.00000000	     16.72079172	    -14.37890222	    -13.02575677	    100.25213421	     48.36578909	      0.00000000	      0.00000000
     54.30428571	     -5.50254945	     -2.37668301	      0.05531336	      1.07279088	      0.90987596	      0.46093618	     29.66806137	     -3.00639117	    -10.83343547	     22.59077981	     22.59077981	      0.17624541	     -3.12081397	     -1.42303893	     -4.84711084	     -6.65023991	    -12.33374278	     18.21516766	     18.21516766	     22.02706200	      6.48878430	     -5.94020460	    -10.94996729	      1.94731801	     -0.17443129	    -20.45467413	    -13.90147835	     -5.54393479	     30.61258251	     46.72328519	      0.00000000	      0.00000000	     16.22133103	    -13.96599674	    -13.01673627	    100.45071269	     48.37371699	      0.00000000	      0.00000000
     54.31621429	     -5.41586564	     -2.57642488	      0.20949622	      1.07415879	      0.91142291	      0.46420766	     29.04891554	     -2.64771241	    -10.85480705	     22.97823388	     22.97823388	      0.95753009	     -3.43787094	     -1.53741951	     -4.46784154	     -7.36787183	    -11.83426916	     20.17774295	     20.17774295	     21.29932893	      5.58286057	     -6.45857952	    -11.14288627	      2.15308544	     -0.01177571	    -19.42884188	    -13.71265984	     -5.34347036	     30.87500832	     46.70177785	      0.00000000	      0.00000000	     15.55162550	    -13.53680129	    -12.89695010	    100.36681085	     48.36507307	      0.00000000	      0.00000000
     54.32814286	     -5.57326163	     -2.84910732	      0.40877831	      1.07514952	      0.91280747	      0.46757890	     28.57107359	     -2.20270299	    -11.01055499	     23.07048740	     23.07048740	      1.64362652	     -3.64801230	     -1.46337767	     -3.40764693	     -8.22313114	    -11.07743425	     22.77685245	     22.77685245	     20.22501420	      4.24342443	     -7.39060885	    -11.07160841	      2.38455243	      0.05445475	    -18.27027219	    -13.55561949	     -5.07033542	     31.19299917	     46.67290462	      0.00000000	      0.00000000	     14.78977035	    -13.23569929	    -12.82564663	    100.22017263	     48.35905244	      0.00000000	      0.00000000
     54.34007143	     -5.74712420	     -2.98773717	      0.55663042	      1.07598521	      0.91432872	      0.47086533	     28.11305871	     -1.90738225	    -11.20697797	     23.19122291	     23.19122291	      2.94422627	     -3.35061192	      0.28779712	     -2.37348183	     -8.73252943	     -9.86928884	     24.89770529	     24.89770529	     16.44464466	      1.03767816	    -13.80594262	    -10.98734361	      2.43432098	     -0.51536146	    -16.44009062	    -13.89476406	     -2.15341740	     31.26160512	     46.42475915	      0.00000000	      0.00000000	     13.24529320	    -13.03656749	    -13.66855104	    100.56617855	     48.47037002	      0.00000000	      0.00000000
     54.35200000	     -5.85933324	     -3.13223061	      0.69389233	      1.07671881	      0.91598669	      0.47418571	     27.43354849	     -1.55878785	    -11.45313108	     22.94945007	     22.94945007	      3.54867482	     -3.22676522	      0.27939864	     -0.96947470	     -9.30490898	     -8.65616387	     27.97927605	     27.97927605	     14.33392219	     -1.57633933	    -15.27063492	    -10.95984130	      2.51915598	     -0.47464250	    -15.09679356	    -13.94642058	     -1.24971883	     32.23446119	     46.30981954	      0.00000000	      0.00000000	     12.32527687	    -12.81064934	    -13.36006365	     99.77655496	     48.45635711	      0.00000000	      0.00000000
     54.36392857	     -5.91141641	     -3.39695306	      0.83285528	      1.07730112	      0.91764674	      0.47758112	     26.57730330	     -1.06924087	    -11.84080757	     22.47124824	     22.47124824	      4.02979381	     -2.91341307	      0.20468995	      0.72566457	    -10.16327562	     -7.79586882	     31.69248104	     31.69248104	     12.50551893	     -3.20387770	    -15.71793419	    -11.06426096	      2.72947981	     -0.26706838	    -13.63645355	    -13.89957449	     -1.10970892	     32.92290605	     46.28003563	      0.00000000	      0.00000000	     11.50409912	    -12.47130919	    -13.00846601	     99.07807940	     48.41977726	      0.00000000	      0.00000000
     54.37585714	     -6.09148109	     -3.57820571	      0.97940680	      1.07762276	      0.91906128	      0.48081510	     25.83853348	     -0.67493883	    -12.22897187	     21.90721555	     21.90721555	      4.44177515	     -2.49404298	      0.13529742	      2.77723954	    -10.76740067	     -6.52999124	     35.58241570	     35.58241570	     10.20485962	     -5.54533543	    -16.04904821	    -10.99063126	      2.83761882	     -0.17853076	    -12.10786340	    -13.90091279	     -0.92134115	     33.80715077	     46.23904840	      0.00000000	      0.00000000	     10.51999030	    -12.24882616	    -12.63676734	     97.99597320	     48.37409997	      0.00000000	      0.00000000
     54.38778571	     -6.23066479	     -3.64438433	      1.07437500	      1.07769092	      0.92048075	      0.48384853	     25.09534891	     -0.41558983	    -12.61433673	     21.38447782	     21.38447782	      4.78149704	     -1.89725427	      0.01369605	      4.88886992	    -11.03590805	     -4.99727947	     39.44333001	     39.44333001	      7.49032032	     -8.45855528	    -16.05666549	    -11.00768920	      2.83729192	     -0.10570680	    -10.46603273	    -13.97509931	     -0.56793106	     35.00937240	     46.17393080	      0.00000000	      0.00000000	      9.60605130	    -12.03710399	    -12.21670348	     96.50901368	     48.31986395	      0.00000000	      0.00000000
